<?xml version="1.0" encoding="UTF-8"?>
<svg id="Layer_1" xmlns="http://www.w3.org/2000/svg" version="1.1" viewBox="0 0 240 240">
  <!-- Generator: Adobe Illustrator 30.6.0, SVG Export Plug-In . SVG Version: 2.1.4 Build 109)  -->
  <defs>
    <style>
      .st0 {
        fill: #fff;
      }

      .st1 {
        opacity: .25;
      }

      .st2 {
        fill: none;
      }
    </style>
  </defs>
  <rect class="st2" width="240" height="240"/>
  <g id="Reference">
    <g class="st1">
      <path class="st0" d="M174,66v108h-108v-108h108M174,56h-108c-5.52,0-10,4.48-10,10v108c0,5.52,4.48,10,10,10h108c5.52,0,10-4.48,10-10v-108c0-5.52-4.48-10-10-10h0Z"/>
      <path d="M174,66v108h-108v-108h108M174,60h-108c-3.31,0-6,2.69-6,6v108c0,3.31,2.69,6,6,6h108c3.31,0,6-2.69,6-6v-108c0-3.31-2.69-6-6-6h0Z"/>
    </g>
  </g>
</svg>