<?xml version="1.0" encoding="UTF-8"?>
<svg id="Layer_1" xmlns="http://www.w3.org/2000/svg" version="1.1" viewBox="0 0 240 240">
  <!-- Generator: Adobe Illustrator 30.6.0, SVG Export Plug-In . SVG Version: 2.1.4 Build 109)  -->
  <defs>
    <style>
      .st0 {
        stroke: #2bb673;
        stroke-miterlimit: 10;
      }

      .st0, .st1 {
        fill: none;
      }

      .st2 {
        fill: #ec1c24;
      }

      .st3 {
        fill: #ed1c24;
      }

      .st4 {
        fill: #00a551;
      }

      .st5 {
        opacity: .5;
      }
    </style>
  </defs>
  <rect class="st1" width="240" height="240"/>
  <g id="Guides">
    <g class="st5">
      <line class="st0" x1="85" y1="194.5" x2="75" y2="194.5"/>
      <line class="st0" x1="80" y1="189.5" x2="80" y2="199.5"/>
    </g>
    <g class="st5">
      <path class="st4" d="M179,69v70h-70v-70h70M180,68h-72v72h72v-72h0Z"/>
    </g>
    <g class="st5">
      <path class="st2" d="M179,61v118H61V61h118M180,60H60v120h120V60h0Z"/>
    </g>
    <g class="st5">
      <path class="st3" d="M137,103v34h-34v-34h34M138,102h-36v36h36v-36h0Z"/>
    </g>
    <g class="st5">
      <path class="st3" d="M120,61c32.53,0,59,26.47,59,59s-26.47,59-59,59-59-26.47-59-59,26.47-59,59-59M120,60c-33.14,0-60,26.86-60,60s26.86,60,60,60,60-26.86,60-60-26.86-60-60-60h0Z"/>
    </g>
  </g>
</svg>